# Blender 4.3.2
# www.blender.org
mtllib halfpipe.mtl
o Cylinder
v 0.000000 -1.000000 -1.100000
v 0.000000 1.000000 -1.100000
v 0.214599 -1.000000 -1.078864
v 0.214599 1.000000 -1.078864
v 0.420952 -1.000000 -1.016267
v 0.420952 1.000000 -1.016267
v 0.611127 -1.000000 -0.914617
v 0.611127 1.000000 -0.914617
v 0.777817 -1.000000 -0.777817
v 0.777817 1.000000 -0.777817
v 0.914617 -1.000000 -0.611127
v 0.914617 1.000000 -0.611127
v 1.016267 -1.000000 -0.420952
v 1.016267 1.000000 -0.420952
v 1.078864 -1.000000 -0.214599
v 1.078864 1.000000 -0.214599
v 1.099518 -1.000000 -0.009802
v 1.099518 1.000000 -0.009802
v -1.099518 -1.000000 -0.009802
v -1.099518 1.000000 -0.009802
v -1.078864 -1.000000 -0.214599
v -1.078864 1.000000 -0.214599
v -1.016267 -1.000000 -0.420952
v -1.016267 1.000000 -0.420952
v -0.914617 -1.000000 -0.611127
v -0.914617 1.000000 -0.611127
v -0.777817 -1.000000 -0.777817
v -0.777817 1.000000 -0.777817
v -0.611127 -1.000000 -0.914617
v -0.611127 1.000000 -0.914617
v -0.420952 -1.000000 -1.016267
v -0.420952 1.000000 -1.016267
v -0.214599 -1.000000 -1.078864
v -0.214599 1.000000 -1.078864
v 0.000000 -1.000000 -1.000000
v 0.000000 1.000000 -1.000000
v 0.195090 -1.000000 -0.980785
v 0.195090 1.000000 -0.980785
v 0.382683 -1.000000 -0.923880
v 0.382683 1.000000 -0.923880
v 0.555570 -1.000000 -0.831470
v 0.555570 1.000000 -0.831470
v 0.707107 -1.000000 -0.707107
v 0.707107 1.000000 -0.707107
v 0.831470 -1.000000 -0.555570
v 0.831470 1.000000 -0.555570
v 0.923880 -1.000000 -0.382683
v 0.923880 1.000000 -0.382683
v 0.980785 -1.000000 -0.195090
v 0.980785 1.000000 -0.195090
v 1.000000 -1.000000 0.000000
v 1.000000 1.000000 0.000000
v -1.000000 -1.000000 0.000000
v -1.000000 1.000000 0.000000
v -0.980785 -1.000000 -0.195090
v -0.980785 1.000000 -0.195090
v -0.923880 -1.000000 -0.382683
v -0.923880 1.000000 -0.382683
v -0.831470 -1.000000 -0.555570
v -0.831470 1.000000 -0.555570
v -0.707107 -1.000000 -0.707107
v -0.707107 1.000000 -0.707107
v -0.555570 -1.000000 -0.831470
v -0.555570 1.000000 -0.831470
v -0.382683 -1.000000 -0.923880
v -0.382683 1.000000 -0.923880
v -0.195090 -1.000000 -0.980785
v -0.195090 1.000000 -0.980785
vn 0.0980 -0.0000 -0.9952
vn 0.2903 -0.0000 -0.9569
vn 0.4714 -0.0000 -0.8819
vn 0.6344 -0.0000 -0.7730
vn 0.7730 -0.0000 -0.6344
vn 0.8819 -0.0000 -0.4714
vn 0.9569 -0.0000 -0.2903
vn 0.9950 -0.0000 -0.1003
vn -0.9950 -0.0000 -0.1003
vn -0.9569 -0.0000 -0.2903
vn -0.8819 -0.0000 -0.4714
vn -0.7730 -0.0000 -0.6344
vn -0.6344 -0.0000 -0.7730
vn -0.4714 -0.0000 -0.8819
vn -0.2903 -0.0000 -0.9569
vn -0.0980 -0.0000 -0.9952
vn -0.0980 -0.0000 0.9952
vn -0.2903 -0.0000 0.9569
vn -0.4714 -0.0000 0.8819
vn -0.6344 -0.0000 0.7730
vn -0.7730 -0.0000 0.6344
vn -0.8819 -0.0000 0.4714
vn -0.9569 -0.0000 0.2903
vn -0.9952 -0.0000 0.0980
vn 0.9952 -0.0000 0.0980
vn 0.9569 -0.0000 0.2903
vn 0.8819 -0.0000 0.4714
vn 0.7730 -0.0000 0.6344
vn 0.6344 -0.0000 0.7730
vn 0.4714 -0.0000 0.8819
vn 0.2903 -0.0000 0.9569
vn 0.0980 -0.0000 0.9952
vn -0.0000 -1.0000 -0.0000
vn -0.0000 1.0000 -0.0000
vt 1.000000 0.000000
vt 1.000000 1.000000
vt 0.968750 1.000000
vt 0.968750 0.000000
vt 0.937500 1.000000
vt 0.937500 0.000000
vt 0.906250 1.000000
vt 0.906250 0.000000
vt 0.875000 1.000000
vt 0.875000 0.000000
vt 0.843750 1.000000
vt 0.843750 0.000000
vt 0.812500 1.000000
vt 0.812500 0.000000
vt 0.781250 1.000000
vt 0.781250 0.000000
vt 0.750000 1.000000
vt 0.750000 0.000000
vt 0.250000 0.000000
vt 0.250000 1.000000
vt 0.218750 1.000000
vt 0.218750 0.000000
vt 0.187500 1.000000
vt 0.187500 0.000000
vt 0.156250 1.000000
vt 0.156250 0.000000
vt 0.125000 1.000000
vt 0.125000 0.000000
vt 0.093750 1.000000
vt 0.093750 0.000000
vt 0.062500 1.000000
vt 0.062500 0.000000
vt 0.031250 1.000000
vt 0.031250 0.000000
vt 0.000000 1.000000
vt 0.000000 0.000000
s 0
f 1/1/1 2/2/1 4/3/1 3/4/1
f 3/4/2 4/3/2 6/5/2 5/6/2
f 5/6/3 6/5/3 8/7/3 7/8/3
f 7/8/4 8/7/4 10/9/4 9/10/4
f 9/10/5 10/9/5 12/11/5 11/12/5
f 11/12/6 12/11/6 14/13/6 13/14/6
f 13/14/7 14/13/7 16/15/7 15/16/7
f 15/16/8 16/15/8 18/17/8 17/18/8
f 19/19/9 20/20/9 22/21/9 21/22/9
f 21/22/10 22/21/10 24/23/10 23/24/10
f 23/24/11 24/23/11 26/25/11 25/26/11
f 25/26/12 26/25/12 28/27/12 27/28/12
f 27/28/13 28/27/13 30/29/13 29/30/13
f 29/30/14 30/29/14 32/31/14 31/32/14
f 31/32/15 32/31/15 34/33/15 33/34/15
f 33/34/16 34/33/16 2/35/16 1/36/16
f 35/1/17 37/4/17 38/3/17 36/2/17
f 37/4/18 39/6/18 40/5/18 38/3/18
f 39/6/19 41/8/19 42/7/19 40/5/19
f 41/8/20 43/10/20 44/9/20 42/7/20
f 43/10/21 45/12/21 46/11/21 44/9/21
f 45/12/22 47/14/22 48/13/22 46/11/22
f 47/14/23 49/16/23 50/15/23 48/13/23
f 49/16/24 51/18/24 52/17/24 50/15/24
f 53/19/25 55/22/25 56/21/25 54/20/25
f 55/22/26 57/24/26 58/23/26 56/21/26
f 57/24/27 59/26/27 60/25/27 58/23/27
f 59/26/28 61/28/28 62/27/28 60/25/28
f 61/28/29 63/30/29 64/29/29 62/27/29
f 63/30/30 65/32/30 66/31/30 64/29/30
f 65/32/31 67/34/31 68/33/31 66/31/31
f 67/34/32 35/36/32 36/35/32 68/33/32
f 1/1/33 3/4/33 37/4/33 35/1/33
f 4/3/34 2/2/34 36/2/34 38/3/34
f 3/4/33 5/6/33 39/6/33 37/4/33
f 6/5/34 4/3/34 38/3/34 40/5/34
f 5/6/33 7/8/33 41/8/33 39/6/33
f 8/7/34 6/5/34 40/5/34 42/7/34
f 7/8/33 9/10/33 43/10/33 41/8/33
f 10/9/34 8/7/34 42/7/34 44/9/34
f 9/10/33 11/12/33 45/12/33 43/10/33
f 12/11/34 10/9/34 44/9/34 46/11/34
f 11/12/33 13/14/33 47/14/33 45/12/33
f 14/13/34 12/11/34 46/11/34 48/13/34
f 13/14/33 15/16/33 49/16/33 47/14/33
f 16/15/34 14/13/34 48/13/34 50/15/34
f 15/16/33 17/18/33 51/18/33 49/16/33
f 18/17/34 16/15/34 50/15/34 52/17/34
f 17/18/32 18/17/32 52/17/32 51/18/32
f 20/20/17 19/19/17 53/19/17 54/20/17
f 19/19/33 21/22/33 55/22/33 53/19/33
f 22/21/34 20/20/34 54/20/34 56/21/34
f 21/22/33 23/24/33 57/24/33 55/22/33
f 24/23/34 22/21/34 56/21/34 58/23/34
f 23/24/33 25/26/33 59/26/33 57/24/33
f 26/25/34 24/23/34 58/23/34 60/25/34
f 25/26/33 27/28/33 61/28/33 59/26/33
f 28/27/34 26/25/34 60/25/34 62/27/34
f 27/28/33 29/30/33 63/30/33 61/28/33
f 30/29/34 28/27/34 62/27/34 64/29/34
f 29/30/33 31/32/33 65/32/33 63/30/33
f 32/31/34 30/29/34 64/29/34 66/31/34
f 31/32/33 33/34/33 67/34/33 65/32/33
f 34/33/34 32/31/34 66/31/34 68/33/34
f 33/34/33 1/36/33 35/36/33 67/34/33
f 2/35/34 34/33/34 68/33/34 36/35/34
